<svg id="Layer_1" data-name="Layer 1" xmlns="http://www.w3.org/2000/svg" viewBox="0 0 236.97 49.83"><defs><style>.cls-1{fill:#fff;}</style></defs><path class="cls-1" d="M37.59,49.07a39.61,39.61,0,0,1-18.88-5.56C11.57,39.69,6.38,33,3.05,25.73.39,19.44-3,7.76,5,4,11.85,2.2,21,14.79,25.7,19.18c.2.23.6.31.69-.06a23.94,23.94,0,0,1,2.12-4.78A45.65,45.65,0,0,1,41.93.85,5.61,5.61,0,0,1,47.66.73c3.89,2.28,3.52,7.45.06,9.93-2.46,2.38-5.32,4.53-7.48,7.16-1.14,2,1.84,4,3.29,2.1,2.15-2.22,4.25-4.5,6.32-6.8,1.45-1.8,3.6-3.37,6-2.86A5.6,5.6,0,0,1,60.64,16c0,3.82-5.54,7.07-7.92,9.89-.84,1-2.37,1.8-2.38,3.26a2.15,2.15,0,0,0,2,2c1.27-.12,2-1.3,2.77-2.13,2.67-2.57,4.65-6,7.79-8,4.5-2.28,9.69,2.78,7.5,7.35-8,9.86-19.3,21.06-32.81,20.76Zm3.95-24.8h0A5.63,5.63,0,0,1,36.23,17c1.18-3.26,5.33-5.59,7.66-8.2C45.06,7.7,47,6.68,46.3,4.77c-1.12-1.92-2.72-1.16-4.07,0C36.85,8.64,31.77,13.66,29.43,20c-.25.85-1.08,2.44-.4,3.18,4,4,8,8.12,12,12.11,2.39,2.42,4.71,4.9,7.17,7.25.58.39,1.38-.57,2-.76A58.57,58.57,0,0,0,61.93,32c1.6-1.48,3-3.17,4.43-4.79s-.94-4.24-2.72-2.81c-1.73,1.84-3.39,3.75-5.11,5.6s-3,3.94-5.43,4.48a5.53,5.53,0,0,1-6-2.64c-1.94-3.22-.05-6.28,2.49-8.43,1.89-1.72,3.64-3.59,5.53-5.3,2.12-1.4,2-4.72-1-4.23a1.92,1.92,0,0,0-1.3.86c-1.89,2.06-3.8,4.1-5.7,6.16C45.67,22.59,43.91,24.39,41.54,24.27ZM3.31,15.19h0A36.58,36.58,0,0,0,11,32.71c.76,1,5.65,6.45,6.58,5.79,4.1-3.66,6.42-9.32,7-14.56q-5.24-5.7-10.73-11.17C11.65,10.61,9.21,7.87,6,7.39,2.87,8.42,3.19,12.5,3.31,15.19ZM39.26,45.41v0c.72-.2,6.68-.59,5.09-1.73q-8-8-16-16c-.83-.81-.64-.34-.9.44-.25.49-.23,1.06-.45,1.56a23.24,23.24,0,0,1-6.24,10.62c-.24.23.17.65.43.71C26.72,43.88,33,45.84,39.26,45.41Z"/><path class="cls-1" d="M110.54,44.38c1.4,0,2.8-.07,4.18.06.71,0,.89.81,1.3,1.27.9,1.12-.2,2.77-1.48,2.89-6.7.15-13.5,0-20.23,0A14.51,14.51,0,0,1,85.76,46C72.9,38.1,78.25,17.6,93.28,16.74c13.3-1.07,21.54,13.82,14.62,24.73a6.6,6.6,0,0,1-1.57,2.06c-1.11,1.45,3.48.6,4.21.81Zm-16.05-.12c12.59-.38,14.61-18.37,3.1-22.56-11.91-3.34-18.8,12.32-10,20C89.62,43.06,92,44.4,94.49,44.26Z"/><path class="cls-1" d="M187.5,30.55V16.67a8.3,8.3,0,0,1,.24-3.1,2.56,2.56,0,0,1,4.89.69q0,9.24,0,18.49c.06,2.36,2.92-2.57,3.45-3,1-1.4,2.08-2.73,3.14-4.1s2-3.2,3.67-4c1.18-.58,2.55.46,3.08,1.52s-.25,2-.69,2.94c-1.74,2.25-3.48,4.52-5.17,6.8a3.28,3.28,0,0,0-.92,2.81c.09.73.7,1.26,1.09,1.85,1.84,2.53,4,4.82,5.73,7.44a2,2,0,0,1,.08,2.26,2.54,2.54,0,0,1-4.05.65,7.47,7.47,0,0,1-1.46-1.75c-2.32-3-4.73-6-7.1-9-.32-.48-.91-.25-.86.32q0,4.46,0,8.93a2.66,2.66,0,0,1-.7,1.67c-.7.24-1.39.91-2.15.65a3,3,0,0,1-2.27-3.13c0-5,0-10.08,0-15.12Z"/><path class="cls-1" d="M140.27,35.07c0,3.76,0,7.51,0,11.27a2.24,2.24,0,0,1-1.72,2.17,2.32,2.32,0,0,1-2.68-1.75c-.12-.62-1-.35-1.14.09s-.66.66-1,1c-6.11,4.91-15.42,0-16.47-7.33a140.11,140.11,0,0,1-.44-14.5c-.27-2.59.55-5.29,3.72-4.44.42.28,1.2.78,1.34,1.29.44,4.14.07,8.36.2,12.53-.29,4.82,1.88,10.77,7.7,9.79,7.86-2.69,4.9-14.86,5.49-21.34a2.58,2.58,0,0,1,4.49-1.59c.68.56.42,1.66.47,2.45V35.07Z"/><path class="cls-1" d="M171.38,45.17a6.77,6.77,0,0,0,4.5-1.28c1.81-1.79,4.12-4.09,6-1,1.43,4.09-7.11,7.09-10.23,7-14.13-.12-19.79-18.51-7.69-26.17a13.8,13.8,0,0,1,14.66-.16c1.41.85,4,2.61,3.58,4.51a2.49,2.49,0,0,1-3.41,1.93c-1.49-.78-2.25-2.61-3.92-3.15a8.91,8.91,0,0,0-11.77,4.88c-2.4,5.9,1.55,13.61,8.28,13.53Z"/><path class="cls-1" d="M227.68,36.57c0-3.25,0-6.5,0-9.74,0-.78-.84-.65-1.37-.63A2.27,2.27,0,0,1,224,23.79a2.31,2.31,0,0,1,2.23-2.23c.6,0,1.52.1,1.49-.77,0-2,0-4,0-6A2.83,2.83,0,0,1,230.77,12a3,3,0,0,1,2,2.53,31,31,0,0,1,.09,4c0,.66,0,1.33-.07,2s.15.86.73,1a5.1,5.1,0,0,1,2.11.45,2.54,2.54,0,0,1,1.26,1.8,1.62,1.62,0,0,1-.3,1.35c-.23.38-.51.86-.95,1a16.45,16.45,0,0,1-2.21.26c-.58,0-.58.68-.61,1.12q0,8.89,0,17.78a5.44,5.44,0,0,1-.62,2.46,2.79,2.79,0,0,1-1.8,1.06,3,3,0,0,1-2-.9,3.39,3.39,0,0,1-.74-2.46c0-3,0-5.9,0-8.85Z"/><path class="cls-1" d="M151.86,35.06V45.18c0,.59.19,1.24-.22,1.75s-.51,1.1-1.09,1.33a2.61,2.61,0,0,1-3.32-.7,4.19,4.19,0,0,1-.62-2.11c0-6.79,0-13.59,0-20.38-.3-1.89,1.29-4.09,3.29-3.49a2.8,2.8,0,0,1,1.91,2.36c0,3.71,0,7.42,0,11.12Z"/><path class="cls-1" d="M217.6,35.44V45c-.07.89.12,1.92-.54,2.63a2.89,2.89,0,0,1-2.06,1.1,2.8,2.8,0,0,1-2.39-3.27c0-7.21-.1-14.42,0-21.62,0-1.91,2.61-3.14,4-1.76a1.76,1.76,0,0,1,.88,1.63c.14,3.91.07,7.83.08,11.74Z"/><path class="cls-1" d="M149.22,19c-4.88,0-4.26-7.38.41-7C153.9,12.54,153.6,19.18,149.22,19Z"/><path class="cls-1" d="M215.29,19.05c-4.57.13-4.7-7-.14-7C219.44,12,219.75,18.91,215.29,19.05Z"/></svg>