<svg id="Layer_1" data-name="Layer 1" xmlns="http://www.w3.org/2000/svg" viewBox="0 0 236.97 49.84"><defs><style>.cls-1{fill:#066;}</style></defs><path class="cls-1" d="M37.59,49.07a39.61,39.61,0,0,1-18.88-5.56C11.57,39.69,6.38,33,3.05,25.73.39,19.44-3,7.76,5,4,11.85,2.2,21,14.79,25.7,19.18c.2.23.6.31.69-.06a23.94,23.94,0,0,1,2.12-4.78A45.65,45.65,0,0,1,41.93.85,5.61,5.61,0,0,1,47.66.73c3.89,2.28,3.52,7.45.06,9.93-2.46,2.38-5.32,4.53-7.48,7.16-1.14,2,1.84,4,3.29,2.1,2.15-2.22,4.25-4.5,6.32-6.8,1.45-1.8,3.6-3.37,6-2.86A5.6,5.6,0,0,1,60.64,16c0,3.82-5.54,7.07-7.92,9.89-.84,1-2.37,1.8-2.38,3.26a2.15,2.15,0,0,0,2,2c1.27-.12,2-1.3,2.77-2.13,2.67-2.57,4.65-6,7.79-8,4.5-2.28,9.69,2.78,7.5,7.35-8,9.86-19.3,21.06-32.81,20.76Zm3.95-24.8h0A5.63,5.63,0,0,1,36.23,17c1.18-3.26,5.33-5.59,7.66-8.2C45.06,7.7,47,6.68,46.3,4.77c-1.12-1.92-2.72-1.16-4.07,0C36.85,8.64,31.77,13.66,29.43,20c-.25.85-1.08,2.44-.4,3.18,4,4,8,8.12,12,12.11,2.39,2.42,4.71,4.9,7.17,7.25.58.39,1.38-.57,2-.76A58.57,58.57,0,0,0,61.93,32c1.6-1.48,3-3.17,4.43-4.79s-.94-4.24-2.72-2.81c-1.73,1.84-3.39,3.75-5.11,5.6s-3,3.94-5.43,4.48a5.53,5.53,0,0,1-6-2.64c-1.94-3.22-.05-6.28,2.49-8.43,1.89-1.72,3.64-3.59,5.53-5.3,2.12-1.4,2-4.72-1-4.23a1.92,1.92,0,0,0-1.3.86c-1.89,2.06-3.8,4.1-5.7,6.16C45.67,22.59,43.91,24.39,41.54,24.27ZM3.31,15.19h0A36.58,36.58,0,0,0,11,32.71c.76,1,5.65,6.45,6.58,5.79,4.1-3.66,6.42-9.32,7-14.56q-5.24-5.7-10.73-11.17C11.65,10.61,9.21,7.87,6,7.39,2.87,8.42,3.19,12.5,3.31,15.19ZM39.26,45.41v0c.72-.2,6.68-.59,5.09-1.73q-8-8-16-16c-.83-.81-.64-.34-.9.44-.25.49-.23,1.06-.45,1.56a23.24,23.24,0,0,1-6.24,10.62c-.24.23.17.65.43.71C26.72,43.88,33,45.84,39.26,45.41Z"/><path class="cls-1" d="M110.54,44.38c1.4,0,2.8-.07,4.18.06.71,0,.89.81,1.3,1.27.9,1.12-.2,2.77-1.48,2.89a3.62,3.62,0,0,1-1.27.06,2.46,2.46,0,0,0-.47,0H94.31a21.24,21.24,0,0,1-3.82-.39.64.64,0,0,1-.28-.07A30.46,30.46,0,0,1,87.38,47a1.68,1.68,0,0,0-.39-.16A3.19,3.19,0,0,1,85.76,46a7.72,7.72,0,0,1-1.87-1.44,7.22,7.22,0,0,1-1.07-.92A24.79,24.79,0,0,1,81,41.4c-.53-.83-.86-1.76-1.34-2.61s-.55-1.61-.83-2.41a7.46,7.46,0,0,1-.23-2.16,16.14,16.14,0,0,1,0-3.26A6.27,6.27,0,0,1,79,28.82a13.61,13.61,0,0,1,1.23-3.31,16.8,16.8,0,0,1,4.15-5.26c.58-.39,1.16-.81,1.74-1.21a15.67,15.67,0,0,1,4.29-1.79,6.11,6.11,0,0,1,2.92-.51,34.94,34.94,0,0,1,4.22.14A2.38,2.38,0,0,1,98,17,14.34,14.34,0,0,1,102.59,19a14.22,14.22,0,0,1,3.18,2.35,25.61,25.61,0,0,1,2.54,3.39,7.7,7.7,0,0,0,.86,1.63,1.67,1.67,0,0,1,.18.68,2.53,2.53,0,0,0,.38,1,3.36,3.36,0,0,1,.43,1.78,28.83,28.83,0,0,1-.15,6.82c-.12.47-.43.91-.51,1.41a2.56,2.56,0,0,1-.64,1.55.92.92,0,0,0-.16.39,2.72,2.72,0,0,1-.67,1.29.5.5,0,0,0-.13.19,7,7,0,0,1-1,1.53,3,3,0,0,1-.54.53.44.44,0,0,0,.22.8c.21,0,.41,0,.62,0h3.37Zm-16.05-.12a5.65,5.65,0,0,0,2.2-.24l1.12-.37a9.3,9.3,0,0,0,4.55-3.08,7,7,0,0,0,1.55-2.35,1.27,1.27,0,0,1,.24-.51,2.44,2.44,0,0,0,.5-1.26c.13-.91.5-1.78.66-2.67.26-1.72-.41-3.34-.74-5a10.91,10.91,0,0,0-1.54-2.9c-.45-.63-1.07-1.12-1.53-1.74a6.42,6.42,0,0,0-1.88-1.47,11.88,11.88,0,0,0-2-1,10.16,10.16,0,0,0-6.73.23,6.11,6.11,0,0,0-1.88,1,.39.39,0,0,1-.21.11,4.41,4.41,0,0,0-1.42,1,11.8,11.8,0,0,0-1.67,1.92,12.38,12.38,0,0,0-1.22,2.34c-.51.68-.34,1.55-.55,2.32-.69,1.89-.13,3.87.2,5.77a1.45,1.45,0,0,0,.13.45,9.72,9.72,0,0,0,1.19,2.31,1.2,1.2,0,0,1,.15.24,10,10,0,0,0,2,2.37c.68.3,1.14,1,1.91,1.13a.76.76,0,0,1,.32.19,5.44,5.44,0,0,0,1.92.76A5.37,5.37,0,0,0,94.49,44.26Z"/><path class="cls-1" d="M187.5,30.55V16.67a8.3,8.3,0,0,1,.24-3.1,2.55,2.55,0,0,1,4.89.69q0,9.24,0,18.49c0,.68.14.77.75.44a1.09,1.09,0,0,0,.33-.27c.79-1.05,1.52-2.14,2.37-3.14s1.37-2.05,2.25-2.93c.34-.34.58-.79.89-1.17,1.14-1.39,2-3.2,3.67-4,1.18-.58,2.55.46,3.08,1.52s-.25,2-.69,2.94c-1.74,2.25-3.48,4.52-5.17,6.8a8.82,8.82,0,0,0-.74,1.1,3,3,0,0,0-.18,1.71c.09.73.7,1.26,1.09,1.85,1.53,2,3.06,4,4.66,5.88A12,12,0,0,1,206,45a2,2,0,0,1,.08,2.26,2.54,2.54,0,0,1-4.05.65,7.47,7.47,0,0,1-1.46-1.75c-1.29-1.64-2.55-3.34-3.91-4.93-1.07-1.34-2.09-2.71-3.19-4-.32-.48-.91-.25-.86.32q0,4.46,0,8.93a2.66,2.66,0,0,1-.7,1.67c-.52.24-1,.5-1.56.7a.87.87,0,0,1-.59-.05,8.92,8.92,0,0,1-1-.44,3,3,0,0,1-1.27-2.69c0-5,0-10.08,0-15.12Z"/><path class="cls-1" d="M140.27,35.07c0,3.76,0,7.51,0,11.27a2.24,2.24,0,0,1-1.72,2.17,2.32,2.32,0,0,1-2.68-1.75c-.13-.36-.23-.41-.6-.33a.71.71,0,0,0-.54.42c-.17.49-.66.66-1,1a5.08,5.08,0,0,1-2.6,1.33,5.15,5.15,0,0,1-2.09.55,1.85,1.85,0,0,0-.57.06A9.69,9.69,0,0,1,123,48.53a11.06,11.06,0,0,1-2.53-2,10.35,10.35,0,0,1-2.41-3.2,13.46,13.46,0,0,1-.79-2.77c-.1-1.25,0-2.54-.26-3.78a6,6,0,0,1-.18-1.69c0-3,0-6,0-9a6.26,6.26,0,0,1,.15-2.4,7.92,7.92,0,0,0,.23-.87.92.92,0,0,1,.49-.66,4.22,4.22,0,0,1,1-.57,4,4,0,0,1,1.84.06c.39.16.67.57,1,.8a.7.7,0,0,1,.32.49,12,12,0,0,1,.18,2.74c0,3.26,0,6.53,0,9.79a10.74,10.74,0,0,0,.4,4c.27.73.18,1.62.69,2.25a.84.84,0,0,1,.19.33,5,5,0,0,0,1.68,2.13c.28.22.67.33.94.55a2.06,2.06,0,0,0,1.29.52,10,10,0,0,0,2.51,0,5.55,5.55,0,0,0,3.27-2.26,8.93,8.93,0,0,0,1.62-3.72,26,26,0,0,0,.59-2.92c0-4.15,0-8.3,0-12.45.16-1.92,1.62-2.69,3.39-2.32a4.68,4.68,0,0,1,1.1.73c.68.56.42,1.66.47,2.45V35.07Z"/><path class="cls-1" d="M171.38,45.17a5,5,0,0,0,2.73-.4c.58-.31,1.29-.36,1.77-.88,1-.94,3.25-3.45,4.73-2.26.44.4,1.13.58,1.27,1.22a2.39,2.39,0,0,1-.42,2.65,24.38,24.38,0,0,1-2,1.79c-.6.37-1.22.72-1.83,1.07A4.19,4.19,0,0,1,176,49a6.63,6.63,0,0,0-1.64.44,10,10,0,0,1-2.67.35,9.66,9.66,0,0,1-3.09-.34,3.54,3.54,0,0,0-1.26-.38,2.52,2.52,0,0,1-1.19-.43c-.7-.36-1.41-.74-2.08-1.14a9.49,9.49,0,0,1-3.35-2.88,14,14,0,0,1-1.87-2.78,1.67,1.67,0,0,1-.49-1.05,3.78,3.78,0,0,0-.34-1,5.32,5.32,0,0,1-.51-2.25,26.59,26.59,0,0,1,0-4.55,4,4,0,0,1,.24-1c.18-.58.38-1.14.56-1.71a1.91,1.91,0,0,1,.42-.84,17.58,17.58,0,0,1,.95-1.62,14.31,14.31,0,0,1,2.83-3.18,4.12,4.12,0,0,1,1.46-1c.54-.56,1.36-.66,2-1.13a1.5,1.5,0,0,1,.68-.2,5.76,5.76,0,0,0,1.85-.57,2,2,0,0,1,.73-.17,13.4,13.4,0,0,1,5.46.3,10.22,10.22,0,0,0,1.56.41c.57.09,1,.58,1.52.71a1.86,1.86,0,0,1,.9.49,7.19,7.19,0,0,1,1.88,1.35c.84.82,2.14,1.83,1.7,3.16-.15.55-.18,1.17-.79,1.43a.39.39,0,0,0-.15.11,2.22,2.22,0,0,1-2.47.39c-.83-.33-1.31-1.2-2-1.76a5.66,5.66,0,0,0-2-1.39,1.62,1.62,0,0,1-.52-.23,2.08,2.08,0,0,0-1.16-.35c-.6,0-1.2-.14-1.8-.14l-2.22.22a8.72,8.72,0,0,0-5.31,3.92,3.54,3.54,0,0,1-.6,1.07.81.81,0,0,0-.16.39c-.17.69-.33,1.38-.51,2.07a9.43,9.43,0,0,0-.09,3.59c.22.67.43,1.37.6,2.05a9.26,9.26,0,0,0,1.31,2.23,6.59,6.59,0,0,0,1.63,1.7,5.28,5.28,0,0,0,2.05,1.16,6.61,6.61,0,0,0,2,.67l1.28.06Z"/><path class="cls-1" d="M227.68,36.57c0-3.25,0-6.5,0-9.74,0-.41-.16-.59-.56-.63a4.38,4.38,0,0,0-.81,0A2.27,2.27,0,0,1,224,23.79a2.31,2.31,0,0,1,2.23-2.23c.6,0,1.52.1,1.49-.77,0-2,0-4,0-6A2.83,2.83,0,0,1,230.77,12a2.69,2.69,0,0,1,1.63,1.32c.16.39.28.8.41,1.21a31,31,0,0,1,.09,4c0,.66,0,1.33-.07,2s.15.86.73,1a5.1,5.1,0,0,1,2.11.45,2.54,2.54,0,0,1,1.26,1.8,1.62,1.62,0,0,1-.3,1.35c-.23.38-.51.86-.95,1a16.45,16.45,0,0,1-2.21.26c-.58,0-.58.68-.61,1.12q0,8.89,0,17.78a5.44,5.44,0,0,1-.62,2.46,2.79,2.79,0,0,1-1.8,1.06.34.34,0,0,1-.14,0,3.34,3.34,0,0,1-1.91-.92,3.39,3.39,0,0,1-.74-2.46c0-3,0-5.9,0-8.85Z"/><path class="cls-1" d="M151.86,35.06V45.18c0,.59.19,1.24-.22,1.75s-.51,1.1-1.09,1.33a2.61,2.61,0,0,1-3.32-.7,4.19,4.19,0,0,1-.62-2.11c0-6.79,0-13.59,0-20.38-.3-1.89,1.29-4.09,3.29-3.49a2.8,2.8,0,0,1,1.91,2.36c0,3.71,0,7.42,0,11.12Z"/><path class="cls-1" d="M217.6,35.44V45c-.07.89.12,1.92-.54,2.63a2.89,2.89,0,0,1-2.06,1.1,2.8,2.8,0,0,1-2.39-3.27c0-7.21-.1-14.42,0-21.62a2.46,2.46,0,0,1,4-1.76,1.76,1.76,0,0,1,.88,1.63c.14,3.91.07,7.83.08,11.74Z"/><path class="cls-1" d="M149.22,19a3.18,3.18,0,0,1-1.83-.53,3.47,3.47,0,0,1-1.69-3c-.09-.86.59-1.55,1-2.28.21-.43.71-.49,1.08-.73a3,3,0,0,1,1.9-.44c.6,0,1,.44,1.56.64s1,1,1.33,1.61a3.05,3.05,0,0,1,.07,2.37,3.13,3.13,0,0,1-1.47,1.79A2.59,2.59,0,0,1,149.22,19Z"/><path class="cls-1" d="M215.29,19.05a2.93,2.93,0,0,1-2.09-.71,3.42,3.42,0,0,1-.89-.76,3.66,3.66,0,0,1-.53-2.76,3.75,3.75,0,0,1,.84-1.72,10.67,10.67,0,0,1,1.47-.86,3,3,0,0,1,2.61.28c.76.45,1.56.94,1.67,1.92a3.33,3.33,0,0,1-1.25,3.94A2.39,2.39,0,0,1,215.29,19.05Z"/></svg>